solid 
   facet normal -1.950903e-01 9.807853e-01 0.000000e+00
      outer loop
         vertex 3.061617e-16 5.000000e+00 0.000000e+00
         vertex -1.913417e+00 4.619398e+00 0.000000e+00
         vertex -1.913417e+00 4.619398e+00 1.200000e+01
      endloop
   endfacet
   facet normal -1.950903e-01 9.807853e-01 0.000000e+00
      outer loop
         vertex 3.061617e-16 5.000000e+00 0.000000e+00
         vertex -1.913417e+00 4.619398e+00 1.200000e+01
         vertex 3.061617e-16 5.000000e+00 1.200000e+01
      endloop
   endfacet
   facet normal -5.555702e-01 8.314696e-01 0.000000e+00
      outer loop
         vertex -1.913417e+00 4.619398e+00 0.000000e+00
         vertex -3.535534e+00 3.535534e+00 0.000000e+00
         vertex -3.535534e+00 3.535534e+00 1.200000e+01
      endloop
   endfacet
   facet normal -5.555702e-01 8.314696e-01 0.000000e+00
      outer loop
         vertex -1.913417e+00 4.619398e+00 0.000000e+00
         vertex -3.535534e+00 3.535534e+00 1.200000e+01
         vertex -1.913417e+00 4.619398e+00 1.200000e+01
      endloop
   endfacet
   facet normal -8.314696e-01 5.555702e-01 0.000000e+00
      outer loop
         vertex -3.535534e+00 3.535534e+00 0.000000e+00
         vertex -4.619398e+00 1.913417e+00 0.000000e+00
         vertex -4.619398e+00 1.913417e+00 1.200000e+01
      endloop
   endfacet
   facet normal -8.314696e-01 5.555702e-01 0.000000e+00
      outer loop
         vertex -3.535534e+00 3.535534e+00 0.000000e+00
         vertex -4.619398e+00 1.913417e+00 1.200000e+01
         vertex -3.535534e+00 3.535534e+00 1.200000e+01
      endloop
   endfacet
   facet normal -9.807853e-01 1.950903e-01 0.000000e+00
      outer loop
         vertex -4.619398e+00 1.913417e+00 0.000000e+00
         vertex -5.000000e+00 6.123234e-16 0.000000e+00
         vertex -5.000000e+00 6.123234e-16 1.200000e+01
      endloop
   endfacet
   facet normal -9.807853e-01 1.950903e-01 0.000000e+00
      outer loop
         vertex -4.619398e+00 1.913417e+00 0.000000e+00
         vertex -5.000000e+00 6.123234e-16 1.200000e+01
         vertex -4.619398e+00 1.913417e+00 1.200000e+01
      endloop
   endfacet
   facet normal -9.807853e-01 -1.950903e-01 0.000000e+00
      outer loop
         vertex -5.000000e+00 6.123234e-16 0.000000e+00
         vertex -4.619398e+00 -1.913417e+00 0.000000e+00
         vertex -4.619398e+00 -1.913417e+00 1.200000e+01
      endloop
   endfacet
   facet normal -9.807853e-01 -1.950903e-01 0.000000e+00
      outer loop
         vertex -5.000000e+00 6.123234e-16 0.000000e+00
         vertex -4.619398e+00 -1.913417e+00 1.200000e+01
         vertex -5.000000e+00 6.123234e-16 1.200000e+01
      endloop
   endfacet
   facet normal -8.314696e-01 -5.555702e-01 0.000000e+00
      outer loop
         vertex -4.619398e+00 -1.913417e+00 0.000000e+00
         vertex -3.535534e+00 -3.535534e+00 0.000000e+00
         vertex -3.535534e+00 -3.535534e+00 1.200000e+01
      endloop
   endfacet
   facet normal -8.314696e-01 -5.555702e-01 0.000000e+00
      outer loop
         vertex -4.619398e+00 -1.913417e+00 0.000000e+00
         vertex -3.535534e+00 -3.535534e+00 1.200000e+01
         vertex -4.619398e+00 -1.913417e+00 1.200000e+01
      endloop
   endfacet
   facet normal -5.555702e-01 -8.314696e-01 0.000000e+00
      outer loop
         vertex -3.535534e+00 -3.535534e+00 0.000000e+00
         vertex -1.913417e+00 -4.619398e+00 0.000000e+00
         vertex -1.913417e+00 -4.619398e+00 1.200000e+01
      endloop
   endfacet
   facet normal -5.555702e-01 -8.314696e-01 0.000000e+00
      outer loop
         vertex -3.535534e+00 -3.535534e+00 0.000000e+00
         vertex -1.913417e+00 -4.619398e+00 1.200000e+01
         vertex -3.535534e+00 -3.535534e+00 1.200000e+01
      endloop
   endfacet
   facet normal -1.950903e-01 -9.807853e-01 0.000000e+00
      outer loop
         vertex -1.913417e+00 -4.619398e+00 0.000000e+00
         vertex -9.184850e-16 -5.000000e+00 0.000000e+00
         vertex -9.184850e-16 -5.000000e+00 1.200000e+01
      endloop
   endfacet
   facet normal -1.950903e-01 -9.807853e-01 0.000000e+00
      outer loop
         vertex -1.913417e+00 -4.619398e+00 0.000000e+00
         vertex -9.184850e-16 -5.000000e+00 1.200000e+01
         vertex -1.913417e+00 -4.619398e+00 1.200000e+01
      endloop
   endfacet
   facet normal 1.950903e-01 -9.807853e-01 0.000000e+00
      outer loop
         vertex -9.184850e-16 -5.000000e+00 0.000000e+00
         vertex 1.913417e+00 -4.619398e+00 0.000000e+00
         vertex 1.913417e+00 -4.619398e+00 1.200000e+01
      endloop
   endfacet
   facet normal 1.950903e-01 -9.807853e-01 0.000000e+00
      outer loop
         vertex -9.184850e-16 -5.000000e+00 0.000000e+00
         vertex 1.913417e+00 -4.619398e+00 1.200000e+01
         vertex -9.184850e-16 -5.000000e+00 1.200000e+01
      endloop
   endfacet
   facet normal 5.555702e-01 -8.314696e-01 0.000000e+00
      outer loop
         vertex 1.913417e+00 -4.619398e+00 0.000000e+00
         vertex 3.535534e+00 -3.535534e+00 0.000000e+00
         vertex 3.535534e+00 -3.535534e+00 1.200000e+01
      endloop
   endfacet
   facet normal 5.555702e-01 -8.314696e-01 0.000000e+00
      outer loop
         vertex 1.913417e+00 -4.619398e+00 0.000000e+00
         vertex 3.535534e+00 -3.535534e+00 1.200000e+01
         vertex 1.913417e+00 -4.619398e+00 1.200000e+01
      endloop
   endfacet
   facet normal 8.314696e-01 -5.555702e-01 0.000000e+00
      outer loop
         vertex 3.535534e+00 -3.535534e+00 0.000000e+00
         vertex 4.619398e+00 -1.913417e+00 0.000000e+00
         vertex 4.619398e+00 -1.913417e+00 1.200000e+01
      endloop
   endfacet
   facet normal 8.314696e-01 -5.555702e-01 0.000000e+00
      outer loop
         vertex 3.535534e+00 -3.535534e+00 0.000000e+00
         vertex 4.619398e+00 -1.913417e+00 1.200000e+01
         vertex 3.535534e+00 -3.535534e+00 1.200000e+01
      endloop
   endfacet
   facet normal 9.807853e-01 -1.950903e-01 0.000000e+00
      outer loop
         vertex 4.619398e+00 -1.913417e+00 0.000000e+00
         vertex 5.000000e+00 -1.224647e-15 0.000000e+00
         vertex 5.000000e+00 -1.224647e-15 1.200000e+01
      endloop
   endfacet
   facet normal 9.807853e-01 -1.950903e-01 0.000000e+00
      outer loop
         vertex 4.619398e+00 -1.913417e+00 0.000000e+00
         vertex 5.000000e+00 -1.224647e-15 1.200000e+01
         vertex 4.619398e+00 -1.913417e+00 1.200000e+01
      endloop
   endfacet
   facet normal 9.807853e-01 1.950903e-01 -0.000000e+00
      outer loop
         vertex 5.000000e+00 -1.224647e-15 0.000000e+00
         vertex 4.619398e+00 1.913417e+00 0.000000e+00
         vertex 4.619398e+00 1.913417e+00 1.200000e+01
      endloop
   endfacet
   facet normal 9.807853e-01 1.950903e-01 0.000000e+00
      outer loop
         vertex 5.000000e+00 -1.224647e-15 0.000000e+00
         vertex 4.619398e+00 1.913417e+00 1.200000e+01
         vertex 5.000000e+00 -1.224647e-15 1.200000e+01
      endloop
   endfacet
   facet normal 8.314696e-01 5.555702e-01 -0.000000e+00
      outer loop
         vertex 4.619398e+00 1.913417e+00 0.000000e+00
         vertex 3.535534e+00 3.535534e+00 0.000000e+00
         vertex 3.535534e+00 3.535534e+00 1.200000e+01
      endloop
   endfacet
   facet normal 8.314696e-01 5.555702e-01 0.000000e+00
      outer loop
         vertex 4.619398e+00 1.913417e+00 0.000000e+00
         vertex 3.535534e+00 3.535534e+00 1.200000e+01
         vertex 4.619398e+00 1.913417e+00 1.200000e+01
      endloop
   endfacet
   facet normal 5.555702e-01 8.314696e-01 -0.000000e+00
      outer loop
         vertex 3.535534e+00 3.535534e+00 0.000000e+00
         vertex 1.913417e+00 4.619398e+00 0.000000e+00
         vertex 1.913417e+00 4.619398e+00 1.200000e+01
      endloop
   endfacet
   facet normal 5.555702e-01 8.314696e-01 0.000000e+00
      outer loop
         vertex 3.535534e+00 3.535534e+00 0.000000e+00
         vertex 1.913417e+00 4.619398e+00 1.200000e+01
         vertex 3.535534e+00 3.535534e+00 1.200000e+01
      endloop
   endfacet
   facet normal 1.950903e-01 9.807853e-01 -0.000000e+00
      outer loop
         vertex 1.913417e+00 4.619398e+00 0.000000e+00
         vertex 1.530808e-15 5.000000e+00 0.000000e+00
         vertex 1.530808e-15 5.000000e+00 1.200000e+01
      endloop
   endfacet
   facet normal 1.950903e-01 9.807853e-01 0.000000e+00
      outer loop
         vertex 1.913417e+00 4.619398e+00 0.000000e+00
         vertex 1.530808e-15 5.000000e+00 1.200000e+01
         vertex 1.913417e+00 4.619398e+00 1.200000e+01
      endloop
   endfacet
   facet normal 0.000000e+00 0.000000e+00 1.000000e+00
      outer loop
         vertex -1.618034e+00 1.175570e+00 2.000000e+00
         vertex -2.000000e+00 2.449294e-16 2.000000e+00
         vertex -6.180340e-01 1.902113e+00 2.000000e+00
      endloop
   endfacet
   facet normal 0.000000e+00 -0.000000e+00 1.000000e+00
      outer loop
         vertex -2.000000e+00 2.449294e-16 2.000000e+00
         vertex -1.618034e+00 -1.175570e+00 2.000000e+00
         vertex -6.180340e-01 1.902113e+00 2.000000e+00
      endloop
   endfacet
   facet normal 0.000000e+00 0.000000e+00 1.000000e+00
      outer loop
         vertex -6.180340e-01 1.902113e+00 2.000000e+00
         vertex -1.618034e+00 -1.175570e+00 2.000000e+00
         vertex 6.180340e-01 1.902113e+00 2.000000e+00
      endloop
   endfacet
   facet normal 0.000000e+00 -0.000000e+00 1.000000e+00
      outer loop
         vertex -1.618034e+00 -1.175570e+00 2.000000e+00
         vertex -6.180340e-01 -1.902113e+00 2.000000e+00
         vertex 6.180340e-01 1.902113e+00 2.000000e+00
      endloop
   endfacet
   facet normal 0.000000e+00 0.000000e+00 1.000000e+00
      outer loop
         vertex 6.180340e-01 1.902113e+00 2.000000e+00
         vertex -6.180340e-01 -1.902113e+00 2.000000e+00
         vertex 1.618034e+00 1.175570e+00 2.000000e+00
      endloop
   endfacet
   facet normal 0.000000e+00 -0.000000e+00 1.000000e+00
      outer loop
         vertex -6.180340e-01 -1.902113e+00 2.000000e+00
         vertex 6.180340e-01 -1.902113e+00 2.000000e+00
         vertex 1.618034e+00 1.175570e+00 2.000000e+00
      endloop
   endfacet
   facet normal 0.000000e+00 0.000000e+00 1.000000e+00
      outer loop
         vertex 1.618034e+00 1.175570e+00 2.000000e+00
         vertex 6.180340e-01 -1.902113e+00 2.000000e+00
         vertex 2.000000e+00 -4.898587e-16 2.000000e+00
      endloop
   endfacet
   facet normal 0.000000e+00 -0.000000e+00 1.000000e+00
      outer loop
         vertex 6.180340e-01 -1.902113e+00 2.000000e+00
         vertex 1.618034e+00 -1.175570e+00 2.000000e+00
         vertex 2.000000e+00 -4.898587e-16 2.000000e+00
      endloop
   endfacet
   facet normal 9.510565e-01 3.090170e-01 -0.000000e+00
      outer loop
         vertex -1.618034e+00 -1.175570e+00 1.200000e+01
         vertex -1.618034e+00 -1.175570e+00 2.000000e+00
         vertex -2.000000e+00 2.449294e-16 2.000000e+00
      endloop
   endfacet
   facet normal 9.510565e-01 3.090170e-01 0.000000e+00
      outer loop
         vertex -2.000000e+00 2.449294e-16 1.200000e+01
         vertex -1.618034e+00 -1.175570e+00 1.200000e+01
         vertex -2.000000e+00 2.449294e-16 2.000000e+00
      endloop
   endfacet
   facet normal 5.877853e-01 8.090170e-01 -0.000000e+00
      outer loop
         vertex -6.180340e-01 -1.902113e+00 1.200000e+01
         vertex -6.180340e-01 -1.902113e+00 2.000000e+00
         vertex -1.618034e+00 -1.175570e+00 2.000000e+00
      endloop
   endfacet
   facet normal 5.877853e-01 8.090170e-01 0.000000e+00
      outer loop
         vertex -1.618034e+00 -1.175570e+00 1.200000e+01
         vertex -6.180340e-01 -1.902113e+00 1.200000e+01
         vertex -1.618034e+00 -1.175570e+00 2.000000e+00
      endloop
   endfacet
   facet normal 0.000000e+00 1.000000e+00 -0.000000e+00
      outer loop
         vertex 6.180340e-01 -1.902113e+00 1.200000e+01
         vertex 6.180340e-01 -1.902113e+00 2.000000e+00
         vertex -6.180340e-01 -1.902113e+00 2.000000e+00
      endloop
   endfacet
   facet normal 0.000000e+00 1.000000e+00 0.000000e+00
      outer loop
         vertex -6.180340e-01 -1.902113e+00 1.200000e+01
         vertex 6.180340e-01 -1.902113e+00 1.200000e+01
         vertex -6.180340e-01 -1.902113e+00 2.000000e+00
      endloop
   endfacet
   facet normal -5.877853e-01 8.090170e-01 0.000000e+00
      outer loop
         vertex 1.618034e+00 -1.175570e+00 1.200000e+01
         vertex 1.618034e+00 -1.175570e+00 2.000000e+00
         vertex 6.180340e-01 -1.902113e+00 2.000000e+00
      endloop
   endfacet
   facet normal -5.877853e-01 8.090170e-01 0.000000e+00
      outer loop
         vertex 6.180340e-01 -1.902113e+00 1.200000e+01
         vertex 1.618034e+00 -1.175570e+00 1.200000e+01
         vertex 6.180340e-01 -1.902113e+00 2.000000e+00
      endloop
   endfacet
   facet normal -9.510565e-01 3.090170e-01 0.000000e+00
      outer loop
         vertex 2.000000e+00 -4.898587e-16 1.200000e+01
         vertex 2.000000e+00 -4.898587e-16 2.000000e+00
         vertex 1.618034e+00 -1.175570e+00 2.000000e+00
      endloop
   endfacet
   facet normal -9.510565e-01 3.090170e-01 0.000000e+00
      outer loop
         vertex 1.618034e+00 -1.175570e+00 1.200000e+01
         vertex 2.000000e+00 -4.898587e-16 1.200000e+01
         vertex 1.618034e+00 -1.175570e+00 2.000000e+00
      endloop
   endfacet
   facet normal -9.510565e-01 -3.090170e-01 0.000000e+00
      outer loop
         vertex 1.618034e+00 1.175570e+00 1.200000e+01
         vertex 1.618034e+00 1.175570e+00 2.000000e+00
         vertex 2.000000e+00 -4.898587e-16 2.000000e+00
      endloop
   endfacet
   facet normal -9.510565e-01 -3.090170e-01 0.000000e+00
      outer loop
         vertex 2.000000e+00 -4.898587e-16 1.200000e+01
         vertex 1.618034e+00 1.175570e+00 1.200000e+01
         vertex 2.000000e+00 -4.898587e-16 2.000000e+00
      endloop
   endfacet
   facet normal -5.877853e-01 -8.090170e-01 0.000000e+00
      outer loop
         vertex 6.180340e-01 1.902113e+00 1.200000e+01
         vertex 6.180340e-01 1.902113e+00 2.000000e+00
         vertex 1.618034e+00 1.175570e+00 2.000000e+00
      endloop
   endfacet
   facet normal -5.877853e-01 -8.090170e-01 0.000000e+00
      outer loop
         vertex 1.618034e+00 1.175570e+00 1.200000e+01
         vertex 6.180340e-01 1.902113e+00 1.200000e+01
         vertex 1.618034e+00 1.175570e+00 2.000000e+00
      endloop
   endfacet
   facet normal 0.000000e+00 -1.000000e+00 0.000000e+00
      outer loop
         vertex -6.180340e-01 1.902113e+00 1.200000e+01
         vertex -6.180340e-01 1.902113e+00 2.000000e+00
         vertex 6.180340e-01 1.902113e+00 2.000000e+00
      endloop
   endfacet
   facet normal 0.000000e+00 -1.000000e+00 0.000000e+00
      outer loop
         vertex 6.180340e-01 1.902113e+00 1.200000e+01
         vertex -6.180340e-01 1.902113e+00 1.200000e+01
         vertex 6.180340e-01 1.902113e+00 2.000000e+00
      endloop
   endfacet
   facet normal 5.877853e-01 -8.090170e-01 0.000000e+00
      outer loop
         vertex -1.618034e+00 1.175570e+00 1.200000e+01
         vertex -1.618034e+00 1.175570e+00 2.000000e+00
         vertex -6.180340e-01 1.902113e+00 2.000000e+00
      endloop
   endfacet
   facet normal 5.877853e-01 -8.090170e-01 0.000000e+00
      outer loop
         vertex -6.180340e-01 1.902113e+00 1.200000e+01
         vertex -1.618034e+00 1.175570e+00 1.200000e+01
         vertex -6.180340e-01 1.902113e+00 2.000000e+00
      endloop
   endfacet
   facet normal 9.510565e-01 -3.090170e-01 0.000000e+00
      outer loop
         vertex -2.000000e+00 7.347881e-16 1.200000e+01
         vertex -2.000000e+00 7.347881e-16 2.000000e+00
         vertex -1.618034e+00 1.175570e+00 2.000000e+00
      endloop
   endfacet
   facet normal 9.510565e-01 -3.090170e-01 0.000000e+00
      outer loop
         vertex -1.618034e+00 1.175570e+00 1.200000e+01
         vertex -2.000000e+00 7.347881e-16 1.200000e+01
         vertex -1.618034e+00 1.175570e+00 2.000000e+00
      endloop
   endfacet
   facet normal 0.000000e+00 0.000000e+00 -1.000000e+00
      outer loop
         vertex -1.913417e+00 4.619398e+00 0.000000e+00
         vertex 3.061617e-16 5.000000e+00 0.000000e+00
         vertex -3.535534e+00 3.535534e+00 0.000000e+00
      endloop
   endfacet
   facet normal -0.000000e+00 0.000000e+00 -1.000000e+00
      outer loop
         vertex 3.061617e-16 5.000000e+00 0.000000e+00
         vertex 1.913417e+00 4.619398e+00 0.000000e+00
         vertex -3.535534e+00 3.535534e+00 0.000000e+00
      endloop
   endfacet
   facet normal 0.000000e+00 0.000000e+00 -1.000000e+00
      outer loop
         vertex -3.535534e+00 3.535534e+00 0.000000e+00
         vertex 1.913417e+00 4.619398e+00 0.000000e+00
         vertex -4.619398e+00 1.913417e+00 0.000000e+00
      endloop
   endfacet
   facet normal -0.000000e+00 0.000000e+00 -1.000000e+00
      outer loop
         vertex 1.913417e+00 4.619398e+00 0.000000e+00
         vertex 3.535534e+00 3.535534e+00 0.000000e+00
         vertex -4.619398e+00 1.913417e+00 0.000000e+00
      endloop
   endfacet
   facet normal 0.000000e+00 0.000000e+00 -1.000000e+00
      outer loop
         vertex -4.619398e+00 1.913417e+00 0.000000e+00
         vertex 3.535534e+00 3.535534e+00 0.000000e+00
         vertex -5.000000e+00 6.123234e-16 0.000000e+00
      endloop
   endfacet
   facet normal -0.000000e+00 0.000000e+00 -1.000000e+00
      outer loop
         vertex 3.535534e+00 3.535534e+00 0.000000e+00
         vertex 4.619398e+00 1.913417e+00 0.000000e+00
         vertex -5.000000e+00 6.123234e-16 0.000000e+00
      endloop
   endfacet
   facet normal 0.000000e+00 0.000000e+00 -1.000000e+00
      outer loop
         vertex -5.000000e+00 6.123234e-16 0.000000e+00
         vertex 4.619398e+00 1.913417e+00 0.000000e+00
         vertex -4.619398e+00 -1.913417e+00 0.000000e+00
      endloop
   endfacet
   facet normal -0.000000e+00 0.000000e+00 -1.000000e+00
      outer loop
         vertex 4.619398e+00 1.913417e+00 0.000000e+00
         vertex 5.000000e+00 -1.224647e-15 0.000000e+00
         vertex -4.619398e+00 -1.913417e+00 0.000000e+00
      endloop
   endfacet
   facet normal 0.000000e+00 0.000000e+00 -1.000000e+00
      outer loop
         vertex -4.619398e+00 -1.913417e+00 0.000000e+00
         vertex 5.000000e+00 -1.224647e-15 0.000000e+00
         vertex -3.535534e+00 -3.535534e+00 0.000000e+00
      endloop
   endfacet
   facet normal -0.000000e+00 0.000000e+00 -1.000000e+00
      outer loop
         vertex 5.000000e+00 -1.224647e-15 0.000000e+00
         vertex 4.619398e+00 -1.913417e+00 0.000000e+00
         vertex -3.535534e+00 -3.535534e+00 0.000000e+00
      endloop
   endfacet
   facet normal 0.000000e+00 0.000000e+00 -1.000000e+00
      outer loop
         vertex -3.535534e+00 -3.535534e+00 0.000000e+00
         vertex 4.619398e+00 -1.913417e+00 0.000000e+00
         vertex -1.913417e+00 -4.619398e+00 0.000000e+00
      endloop
   endfacet
   facet normal -0.000000e+00 0.000000e+00 -1.000000e+00
      outer loop
         vertex 4.619398e+00 -1.913417e+00 0.000000e+00
         vertex 3.535534e+00 -3.535534e+00 0.000000e+00
         vertex -1.913417e+00 -4.619398e+00 0.000000e+00
      endloop
   endfacet
   facet normal 0.000000e+00 0.000000e+00 -1.000000e+00
      outer loop
         vertex -1.913417e+00 -4.619398e+00 0.000000e+00
         vertex 3.535534e+00 -3.535534e+00 0.000000e+00
         vertex -9.184850e-16 -5.000000e+00 0.000000e+00
      endloop
   endfacet
   facet normal -0.000000e+00 0.000000e+00 -1.000000e+00
      outer loop
         vertex 3.535534e+00 -3.535534e+00 0.000000e+00
         vertex 1.913417e+00 -4.619398e+00 0.000000e+00
         vertex -9.184850e-16 -5.000000e+00 0.000000e+00
      endloop
   endfacet
   facet normal 0.000000e+00 0.000000e+00 1.000000e+00
      outer loop
         vertex 1.913417e+00 4.619398e+00 1.200000e+01
         vertex 1.122593e-15 5.000000e+00 1.200000e+01
         vertex 3.535534e+00 3.535534e+00 1.200000e+01
      endloop
   endfacet
   facet normal -0.000000e+00 0.000000e+00 1.000000e+00
      outer loop
         vertex 1.122593e-15 5.000000e+00 1.200000e+01
         vertex -1.913417e+00 4.619398e+00 1.200000e+01
         vertex 3.535534e+00 3.535534e+00 1.200000e+01
      endloop
   endfacet
   facet normal 0.000000e+00 0.000000e+00 1.000000e+00
      outer loop
         vertex 3.535534e+00 3.535534e+00 1.200000e+01
         vertex -1.913417e+00 4.619398e+00 1.200000e+01
         vertex 4.619398e+00 1.913417e+00 1.200000e+01
      endloop
   endfacet
   facet normal -0.000000e+00 0.000000e+00 1.000000e+00
      outer loop
         vertex -1.913417e+00 4.619398e+00 1.200000e+01
         vertex -3.535534e+00 3.535534e+00 1.200000e+01
         vertex 4.619398e+00 1.913417e+00 1.200000e+01
      endloop
   endfacet
   facet normal -0.000000e+00 0.000000e+00 1.000000e+00
      outer loop
         vertex 4.619398e+00 1.913417e+00 1.200000e+01
         vertex 6.180340e-01 1.902113e+00 1.200000e+01
         vertex 5.000000e+00 -1.224647e-15 1.200000e+01
      endloop
   endfacet
   facet normal -0.000000e+00 -0.000000e+00 1.000000e+00
      outer loop
         vertex 6.180340e-01 1.902113e+00 1.200000e+01
         vertex 1.618034e+00 1.175570e+00 1.200000e+01
         vertex 5.000000e+00 -1.224647e-15 1.200000e+01
      endloop
   endfacet
   facet normal 0.000000e+00 0.000000e+00 1.000000e+00
      outer loop
         vertex 5.000000e+00 -1.224647e-15 1.200000e+01
         vertex 1.618034e+00 1.175570e+00 1.200000e+01
         vertex 4.619398e+00 -1.913417e+00 1.200000e+01
      endloop
   endfacet
   facet normal -0.000000e+00 -0.000000e+00 1.000000e+00
      outer loop
         vertex 1.618034e+00 1.175570e+00 1.200000e+01
         vertex 2.000000e+00 -4.898587e-16 1.200000e+01
         vertex 4.619398e+00 -1.913417e+00 1.200000e+01
      endloop
   endfacet
   facet normal 0.000000e+00 0.000000e+00 1.000000e+00
      outer loop
         vertex 4.619398e+00 -1.913417e+00 1.200000e+01
         vertex 2.000000e+00 -4.898587e-16 1.200000e+01
         vertex 3.535534e+00 -3.535534e+00 1.200000e+01
      endloop
   endfacet
   facet normal -0.000000e+00 0.000000e+00 1.000000e+00
      outer loop
         vertex 2.000000e+00 -4.898587e-16 1.200000e+01
         vertex 1.618034e+00 -1.175570e+00 1.200000e+01
         vertex 3.535534e+00 -3.535534e+00 1.200000e+01
      endloop
   endfacet
   facet normal 0.000000e+00 0.000000e+00 1.000000e+00
      outer loop
         vertex 3.535534e+00 -3.535534e+00 1.200000e+01
         vertex 1.618034e+00 -1.175570e+00 1.200000e+01
         vertex 1.913417e+00 -4.619398e+00 1.200000e+01
      endloop
   endfacet
   facet normal -0.000000e+00 0.000000e+00 1.000000e+00
      outer loop
         vertex 1.618034e+00 -1.175570e+00 1.200000e+01
         vertex 6.180340e-01 -1.902113e+00 1.200000e+01
         vertex 1.913417e+00 -4.619398e+00 1.200000e+01
      endloop
   endfacet
   facet normal 0.000000e+00 0.000000e+00 1.000000e+00
      outer loop
         vertex 1.913417e+00 -4.619398e+00 1.200000e+01
         vertex 6.180340e-01 -1.902113e+00 1.200000e+01
         vertex -9.184850e-16 -5.000000e+00 1.200000e+01
      endloop
   endfacet
   facet normal -0.000000e+00 0.000000e+00 1.000000e+00
      outer loop
         vertex 6.180340e-01 -1.902113e+00 1.200000e+01
         vertex -6.180340e-01 -1.902113e+00 1.200000e+01
         vertex -9.184850e-16 -5.000000e+00 1.200000e+01
      endloop
   endfacet
   facet normal 0.000000e+00 0.000000e+00 1.000000e+00
      outer loop
         vertex -9.184850e-16 -5.000000e+00 1.200000e+01
         vertex -6.180340e-01 -1.902113e+00 1.200000e+01
         vertex -1.913417e+00 -4.619398e+00 1.200000e+01
      endloop
   endfacet
   facet normal 0.000000e+00 0.000000e+00 1.000000e+00
      outer loop
         vertex -6.180340e-01 -1.902113e+00 1.200000e+01
         vertex -1.618034e+00 -1.175570e+00 1.200000e+01
         vertex -1.913417e+00 -4.619398e+00 1.200000e+01
      endloop
   endfacet
   facet normal 0.000000e+00 0.000000e+00 1.000000e+00
      outer loop
         vertex -1.913417e+00 -4.619398e+00 1.200000e+01
         vertex -1.618034e+00 -1.175570e+00 1.200000e+01
         vertex -3.535534e+00 -3.535534e+00 1.200000e+01
      endloop
   endfacet
   facet normal 0.000000e+00 0.000000e+00 1.000000e+00
      outer loop
         vertex -1.618034e+00 -1.175570e+00 1.200000e+01
         vertex -2.000000e+00 2.449294e-16 1.200000e+01
         vertex -3.535534e+00 -3.535534e+00 1.200000e+01
      endloop
   endfacet
   facet normal 0.000000e+00 0.000000e+00 1.000000e+00
      outer loop
         vertex -3.535534e+00 -3.535534e+00 1.200000e+01
         vertex -2.000000e+00 2.449294e-16 1.200000e+01
         vertex -4.619398e+00 -1.913417e+00 1.200000e+01
      endloop
   endfacet
   facet normal 0.000000e+00 0.000000e+00 1.000000e+00
      outer loop
         vertex -2.000000e+00 2.449294e-16 1.200000e+01
         vertex -1.618034e+00 1.175570e+00 1.200000e+01
         vertex -4.619398e+00 -1.913417e+00 1.200000e+01
      endloop
   endfacet
   facet normal 0.000000e+00 0.000000e+00 1.000000e+00
      outer loop
         vertex -4.619398e+00 -1.913417e+00 1.200000e+01
         vertex -1.618034e+00 1.175570e+00 1.200000e+01
         vertex -5.000000e+00 1.224647e-15 1.200000e+01
      endloop
   endfacet
   facet normal 0.000000e+00 0.000000e+00 1.000000e+00
      outer loop
         vertex -1.618034e+00 1.175570e+00 1.200000e+01
         vertex -6.180340e-01 1.902113e+00 1.200000e+01
         vertex -5.000000e+00 1.224647e-15 1.200000e+01
      endloop
   endfacet
   facet normal 0.000000e+00 0.000000e+00 1.000000e+00
      outer loop
         vertex -5.000000e+00 1.224647e-15 1.200000e+01
         vertex -6.180340e-01 1.902113e+00 1.200000e+01
         vertex -4.619398e+00 1.913417e+00 1.200000e+01
      endloop
   endfacet
   facet normal 0.000000e+00 0.000000e+00 1.000000e+00
      outer loop
         vertex -6.180340e-01 1.902113e+00 1.200000e+01
         vertex 6.180340e-01 1.902113e+00 1.200000e+01
         vertex -4.619398e+00 1.913417e+00 1.200000e+01
      endloop
   endfacet
   facet normal 0.000000e+00 0.000000e+00 1.000000e+00
      outer loop
         vertex -4.619398e+00 1.913417e+00 1.200000e+01
         vertex 6.180340e-01 1.902113e+00 1.200000e+01
         vertex -3.535534e+00 3.535534e+00 1.200000e+01
      endloop
   endfacet
   facet normal 0.000000e+00 0.000000e+00 1.000000e+00
      outer loop
         vertex 6.180340e-01 1.902113e+00 1.200000e+01
         vertex 4.619398e+00 1.913417e+00 1.200000e+01
         vertex -3.535534e+00 3.535534e+00 1.200000e+01
      endloop
   endfacet
endsolid
